<?xml version="1.0" encoding="UTF-8" standalone="no"?>
<svg
   width="16"
   height="16"
   fill="currentColor"
   class="bi bi-youtube"
   viewBox="0 0 16 16"
   version="1.1"
   id="svg1"
   sodipodi:docname="youtube.svg"
   xmlns:inkscape="http://www.inkscape.org/namespaces/inkscape"
   xmlns:sodipodi="http://sodipodi.sourceforge.net/DTD/sodipodi-0.dtd"
   xmlns="http://www.w3.org/2000/svg"
   xmlns:svg="http://www.w3.org/2000/svg">
  <defs
     id="defs1" />
  <sodipodi:namedview
     id="namedview1"
     pagecolor="#ffffff"
     bordercolor="#000000"
     borderopacity="0.25"
     inkscape:showpageshadow="2"
     inkscape:pageopacity="0.0"
     inkscape:pagecheckerboard="0"
     inkscape:deskcolor="#d1d1d1" />
  <path
     d="M 8.051,1.999 H 8.14 c 0.822,0.003 4.987,0.033 6.11,0.335 a 2.01,2.01 0 0 1 1.415,1.42 c 0.101,0.38 0.172,0.883 0.22,1.402 l 0.01,0.104 0.022,0.26 0.008,0.104 c 0.065,0.914 0.073,1.77 0.074,1.957 v 0.075 c -0.001,0.194 -0.01,1.108 -0.082,2.06 L 15.909,9.821 15.9,9.925 c -0.05,0.572 -0.124,1.14 -0.235,1.558 a 2.01,2.01 0 0 1 -1.415,1.42 c -1.16,0.312 -5.569,0.334 -6.18,0.335 H 7.928 c -0.309,0 -1.587,-0.006 -2.927,-0.052 L 4.831,13.18 4.744,13.176 4.573,13.169 4.402,13.162 C 3.292,13.113 2.235,13.034 1.748,12.902 A 2.01,2.01 0 0 1 0.333,11.483 C 0.222,11.066 0.148,10.497 0.098,9.925 L 0.09,9.82 0.082,9.716 A 31,31 0 0 1 0,7.68 V 7.557 C 0.002,7.342 0.01,6.599 0.064,5.779 L 0.071,5.676 0.074,5.624 0.082,5.52 0.104,5.26 0.114,5.156 C 0.162,4.637 0.233,4.133 0.334,3.754 A 2.01,2.01 0 0 1 1.749,2.334 C 2.236,2.204 3.293,2.124 4.403,2.074 L 4.573,2.067 4.745,2.061 4.831,2.058 5.002,2.051 A 100,100 0 0 1 7.858,2 Z M 6.4,5.209 v 4.818 l 4.157,-2.408 z"
     id="path1"
     style="fill:#ffffff" />
</svg>
